# xmcd
# 
# Track frame offsets:
#     150
#     81887
#     190827
# 
# Disc length: 3635
# 
# Revision: 1
# Processed by: cddbd v1.5.2PL0 Copyright (c) Steve Scherf et al.
# Submitted via: BonkEnc v1.0
# 
DISCID=1c0e3103
DTITLE=Bill Dixon with Exploding Star Orchestra - Bill Dixon with Exploding Star Orchestra
DYEAR=2008
DGENRE=Jazz
TTITLE0=Entrances/One
TTITLE1=Constellations For Innerlight Projections (For Bill Dixon)
TTITLE2=Entrances/Two
EXTD=YEAR: 2008
EXTT0=
EXTT1=
EXTT2=
PLAYORDER=
